<?xml version="1.0" encoding="UTF-8"?>
<!DOCTYPE svg PUBLIC "-//W3C//DTD SVG 1.1//EN" "http://www.w3.org/Graphics/SVG/1.1/DTD/svg11.dtd">
<!-- Creator: CorelDRAW Home & Student X6 -->
<svg xmlns="http://www.w3.org/2000/svg" xml:space="preserve" width="297mm" height="210.002mm" version="1.1" style="shape-rendering:geometricPrecision; text-rendering:geometricPrecision; image-rendering:optimizeQuality; fill-rule:evenodd; clip-rule:evenodd"
viewBox="0 0 29700 21000"
 xmlns:xlink="http://www.w3.org/1999/xlink">
 <defs>
  <style type="text/css">
   <![CDATA[
    .fil0 {fill:#18181C;fill-rule:nonzero}
    .fil1 {fill:#DA0001;fill-rule:nonzero}
    .fil2 {fill:red;fill-rule:nonzero}
   ]]>
  </style>
 </defs>
 <g id="__x0023_Layer_x0020_1">
  <metadata id="CorelCorpID_0Corel-Layer"/>
  <g id="_454348424">
   <path class="fil0" d="M16139 10083l-192 904 -2387 0 192 -904 2387 0zm59 -48l0 0 -59 0 -2387 0 -39 0 -8 38 -192 904 -12 58 59 0 2387 0 39 0 8 -38 192 -904 12 -58z"/>
  </g>
  <g id="_454375640">
   <g>
    <path class="fil0" d="M13998 10585c-22,-22 -54,-32 -95,-32l-90 0 -70 331 102 0c38,0 71,-8 99,-24 28,-16 49,-40 64,-71 15,-31 22,-68 22,-110 0,-40 -11,-71 -33,-93zm-52 173l0 0c-9,22 -22,39 -39,51 -17,11 -36,17 -58,17l-24 0 46 -216 26 0c21,0 36,6 47,18 11,12 16,30 16,53 0,29 -5,54 -14,76z"/>
    <polygon class="fil0" points="14218,10883 14033,10883 14103,10552 14288,10552 14276,10610 14160,10610 14145,10682 14253,10682 14241,10740 14133,10740 14114,10825 14230,10825 "/>
    <polygon class="fil0" points="14332,10883 14263,10883 14333,10552 14517,10552 14505,10610 14390,10610 14372,10695 14479,10695 14467,10752 14360,10752 "/>
    <path class="fil0" d="M14794 10552l-46 214c-9,40 -25,70 -49,91 -24,20 -56,31 -95,31 -32,0 -57,-9 -76,-26 -18,-17 -28,-40 -28,-70 0,-11 1,-21 3,-31l44 -209 69 0 -44 208c-3,11 -4,21 -4,28 0,27 14,40 43,40 19,0 33,-6 44,-17 11,-12 19,-29 24,-52l44 -208 69 0z"/>
    <path class="fil0" d="M14980 10786c0,32 -11,57 -34,75 -22,18 -53,28 -91,28 -33,0 -60,-7 -81,-20l0 -62c29,16 56,24 81,24 17,0 30,-3 40,-10 10,-6 14,-15 14,-26 0,-6 -1,-12 -3,-17 -2,-5 -5,-9 -9,-14 -4,-4 -13,-12 -28,-23 -21,-15 -36,-30 -44,-44 -8,-15 -13,-30 -13,-47 0,-19 5,-37 14,-52 9,-15 23,-27 40,-36 17,-9 37,-13 60,-13 33,0 63,7 90,22l-25 53c-24,-11 -45,-17 -65,-17 -13,0 -23,3 -31,10 -8,7 -12,16 -12,27 0,9 3,17 7,24 5,7 16,16 34,27 18,12 32,25 41,40 9,15 14,32 14,51z"/>
    <polygon class="fil0" points="15183,10883 14998,10883 15068,10552 15253,10552 15241,10610 15125,10610 15110,10682 15218,10682 15205,10740 15097,10740 15079,10825 15195,10825 "/>
    <path class="fil1" d="M15415 10800l125 -248 96 0 -70 331 -63 0 33 -157c8,-37 16,-71 24,-100l-1 0 -129 257 -64 0 -14 -257 -1 0c-2,13 -5,31 -9,52 -4,22 -18,90 -42,204l-62 0 70 -331 92 0 15 248 1 0z"/>
    <polygon class="fil1" points="15798,10883 15613,10883 15683,10552 15868,10552 15856,10610 15740,10610 15725,10682 15833,10682 15820,10740 15712,10740 15694,10825 15810,10825 "/>
   </g>
   <g>
    <polygon class="fil0" points="14171,10414 14311,10303 14218,10193 14317,10193 14411,10303 14270,10414 "/>
    <polygon class="fil0" points="14000,10414 14141,10303 14047,10193 14146,10193 14240,10303 14099,10414 "/>
    <polygon class="fil0" points="13829,10414 13970,10303 13876,10193 13976,10193 14069,10303 13928,10414 "/>
    <polygon class="fil0" points="15614,10193 15474,10303 15567,10414 15468,10414 15374,10303 15515,10193 "/>
    <polygon class="fil0" points="15785,10193 15644,10303 15738,10414 15639,10414 15545,10303 15686,10193 "/>
    <polygon class="fil0" points="15956,10193 15815,10303 15909,10414 15809,10414 15716,10303 15857,10193 "/>
    <g>
     <g>
      <g>
       <polygon class="fil1" points="15125,10407 15146,10314 15156,10306 15177,10332 15165,10388 15131,10415 "/>
       <path class="fil2" d="M15156 10308l19 25 -12 54 -32 26 -5 -6 20 -92 8 -7zm0 -4l0 0 -12 9 -21 95 7 9 35 -28 12 -57 -22 -28z"/>
      </g>
      <g>
       <polygon class="fil1" points="15216,10207 15195,10180 15205,10172 15298,10172 15304,10180 15271,10207 "/>
       <path class="fil2" d="M15297 10174l5 6 -32 26 -54 0 -20 -25 8 -7 92 0zm1 -3l0 0 -95 0 -12 9 22 28 57 0 35 -28 -7 -9z"/>
      </g>
      <g>
       <polygon class="fil1" points="15147,10435 15141,10427 15174,10400 15229,10400 15250,10426 15240,10435 "/>
       <path class="fil2" d="M15229 10401l20 25 -8 7 -92 0 -5 -6 32 -26 54 0zm1 -3l0 0 -57 0 -35 28 7 9 95 0 12 -9 -22 -28z"/>
      </g>
      <g>
       <polygon class="fil1" points="15191,10321 15177,10304 15199,10286 15254,10286 15268,10303 15246,10321 "/>
       <path class="fil2" d="M15254 10288l12 16 -20 16 -54 0 -12 -16 20 -16 54 0zm1 -3l0 0 -57 0 -23 19 15 19 57 0 23 -19 -15 -19z"/>
      </g>
      <g>
       <polygon class="fil1" points="15268,10275 15280,10219 15314,10192 15320,10200 15299,10293 15289,10301 "/>
       <path class="fil2" d="M15313 10194l5 6 -20 92 -8 7 -19 -25 12 -54 31 -26zm0 -4l0 0 -35 28 -12 57 22 28 12 -10 21 -95 -7 -9z"/>
      </g>
     </g>
     <g>
      <polygon class="fil1" points="14468,10407 14488,10314 14498,10306 14519,10332 14507,10388 14474,10415 "/>
      <path class="fil2" d="M14498 10308l19 25 -12 54 -32 26 -5 -6 20 -92 8 -7zm0 -4l0 0 -12 9 -21 95 7 9 35 -28 12 -57 -22 -28z"/>
     </g>
     <g>
      <polygon class="fil1" points="14558,10207 14537,10180 14547,10172 14641,10172 14647,10180 14614,10207 "/>
      <path class="fil2" d="M14640 10174l5 6 -32 26 -54 0 -20 -25 8 -7 92 0zm1 -3l0 0 -95 0 -12 9 22 28 57 0 35 -28 -7 -9z"/>
     </g>
     <g>
      <polygon class="fil1" points="14489,10435 14483,10427 14516,10400 14572,10400 14593,10426 14583,10435 "/>
      <path class="fil2" d="M14571 10401l20 25 -8 7 -92 0 -5 -6 32 -26 54 0zm1 -3l0 0 -57 0 -35 28 7 9 95 0 12 -9 -22 -28z"/>
     </g>
     <g>
      <polygon class="fil1" points="14533,10321 14520,10304 14541,10286 14597,10286 14610,10303 14589,10321 "/>
      <path class="fil2" d="M14596 10288l12 16 -20 16 -54 0 -12 -16 20 -16 54 0zm1 -3l0 0 -57 0 -23 19 15 19 57 0 23 -19 -15 -19z"/>
     </g>
     <g>
      <polygon class="fil1" points="14611,10275 14623,10219 14656,10192 14662,10200 14642,10293 14632,10301 "/>
      <path class="fil2" d="M14656 10194l5 6 -20 92 -8 7 -19 -25 12 -54 31 -26zm0 -4l0 0 -35 28 -12 57 22 28 12 -10 21 -95 -7 -9z"/>
     </g>
     <g>
      <polygon class="fil1" points="14729,10207 14708,10180 14718,10172 14811,10172 14817,10180 14784,10207 "/>
      <path class="fil2" d="M14811 10174l5 6 -32 26 -54 0 -20 -25 8 -7 92 0zm1 -3l0 0 -95 0 -12 9 22 28 57 0 35 -28 -7 -9z"/>
     </g>
     <g>
      <polygon class="fil1" points="14660,10435 14654,10427 14687,10400 14743,10400 14763,10426 14753,10435 "/>
      <path class="fil2" d="M14742 10401l20 25 -8 7 -92 0 -5 -6 32 -26 54 0zm1 -3l0 0 -57 0 -35 28 7 9 95 0 12 -9 -22 -28z"/>
     </g>
     <g>
      <polygon class="fil1" points="14704,10321 14690,10304 14712,10286 14767,10286 14781,10303 14759,10321 "/>
      <path class="fil2" d="M14767 10288l12 16 -20 16 -54 0 -12 -16 20 -16 54 0zm1 -3l0 0 -57 0 -23 19 15 19 57 0 23 -19 -15 -19z"/>
     </g>
     <g>
      <polygon class="fil1" points="14781,10275 14794,10219 14827,10192 14833,10200 14812,10293 14802,10301 "/>
      <path class="fil2" d="M14826 10194l5 6 -20 92 -8 7 -19 -25 12 -54 31 -26zm0 -4l0 0 -35 28 -12 57 22 28 12 -10 21 -95 -7 -9z"/>
     </g>
     <g>
      <polygon class="fil1" points="14756,10388 14769,10333 14802,10306 14808,10313 14787,10407 14777,10415 "/>
      <path class="fil2" d="M14801 10308l5 6 -20 92 -8 7 -19 -25 12 -54 31 -26zm0 -4l0 0 -35 28 -12 57 22 28 12 -9 21 -95 -7 -9z"/>
     </g>
     <g>
      <path class="fil1" d="M14902 10264c-5,0 -8,-2 -11,-5 -3,-3 -3,-7 -2,-12 1,-5 4,-9 8,-13 4,-4 9,-5 14,-5 5,0 8,2 11,5 3,3 3,7 2,12 -1,5 -4,9 -8,13 -4,4 -9,5 -14,5z"/>
      <path class="fil2" d="M14910 10231c4,0 7,1 10,4 2,3 3,7 2,11 -1,5 -3,8 -7,12 -4,3 -8,5 -13,5 -4,0 -7,-1 -10,-4 -2,-3 -3,-7 -2,-11 1,-5 3,-8 8,-12 4,-3 8,-5 13,-5zm0 -3l0 0c-5,0 -10,2 -15,6 -5,4 -7,8 -9,13 -1,5 0,10 3,13 3,4 7,6 12,6 5,0 10,-2 15,-6 5,-4 7,-8 9,-13 1,-5 0,-10 -3,-13 -3,-4 -7,-6 -12,-6z"/>
     </g>
     <g>
      <path class="fil1" d="M14877 10378c-5,0 -8,-2 -11,-5 -3,-3 -3,-7 -2,-12 1,-5 4,-9 8,-13 4,-3 9,-5 14,-5 5,0 8,2 11,5 3,3 3,7 2,12 -1,5 -4,9 -8,13 -4,4 -9,5 -14,5z"/>
      <path class="fil2" d="M14885 10344c4,0 7,1 10,4 2,3 3,7 2,11 -1,5 -4,8 -8,12 -4,3 -8,5 -13,5 -4,0 -7,-1 -10,-4 -2,-3 -3,-7 -2,-11 1,-5 3,-8 7,-12 4,-3 8,-5 13,-5zm0 -3l0 0c-5,0 -10,2 -15,6 -5,4 -7,8 -9,13 -1,5 0,10 3,13 3,4 7,6 12,6 5,0 10,-2 15,-6 5,-4 7,-8 9,-13 1,-5 0,-10 -3,-13 -3,-4 -7,-6 -12,-6z"/>
     </g>
     <g>
      <polygon class="fil1" points="14980,10294 15000,10200 15010,10192 15031,10219 15019,10274 14986,10301 "/>
      <path class="fil2" d="M15010 10194l19 25 -12 54 -32 26 -5 -6 20 -92 8 -7zm0 -4l0 0 -12 9 -21 95 7 10 35 -28 12 -57 -22 -28z"/>
     </g>
     <g>
      <polygon class="fil1" points="15020,10321 15007,10304 15028,10286 15084,10286 15097,10303 15076,10321 "/>
      <path class="fil2" d="M15083 10288l12 16 -20 16 -54 0 -12 -16 20 -16 54 0zm1 -3l0 0 -57 0 -23 19 15 19 57 0 23 -19 -15 -19z"/>
     </g>
     <g>
      <polygon class="fil1" points="15098,10275 15110,10219 15143,10192 15149,10200 15128,10293 15118,10301 "/>
      <path class="fil2" d="M15143 10194l5 6 -20 92 -8 7 -19 -25 12 -54 31 -26zm0 -4l0 0 -35 28 -12 57 22 28 12 -10 21 -95 -7 -9z"/>
     </g>
     <g>
      <polygon class="fil1" points="15073,10388 15085,10333 15118,10306 15124,10313 15104,10407 15094,10415 "/>
      <path class="fil2" d="M15118 10308l5 6 -20 92 -8 7 -19 -25 12 -54 31 -26zm0 -4l0 0 -35 28 -12 57 22 28 12 -9 21 -95 -7 -9z"/>
     </g>
    </g>
   </g>
  </g>
 </g>
</svg>
